<?xml version="1.0" encoding="utf-8"?>
<!-- Generator: Adobe Illustrator 17.0.0, SVG Export Plug-In . SVG Version: 6.00 Build 0)  -->
<!DOCTYPE svg PUBLIC "-//W3C//DTD SVG 1.1//EN" "http://www.w3.org/Graphics/SVG/1.1/DTD/svg11.dtd">
<svg version="1.1" id="Ebene_1" xmlns="http://www.w3.org/2000/svg" xmlns:xlink="http://www.w3.org/1999/xlink" x="0px" y="0px"
	 width="234px" height="100px" viewBox="0 0 234 100" enable-background="new 0 0 234 100" xml:space="preserve">
<g>
	<g display="none">
		<path display="inline" fill="#FFFFFF" d="M34.438,104.384c-3.83,1.042-6.711,1.649-9.081,1.824
			c-6.949,0.541-12.142-1.66-14.698-6.572c-0.004-0.007-0.007-0.014-0.011-0.021c-1.185-2.295-1.752-5.26-1.733-9.03
			c0.034-6.846,0.069-13.692,0.103-20.538c0.007-1.298,0.097-2.579,0.271-3.832C3.469,67.5-2.323,68.892-8.082,70.389
			c0-25.638,0-51.275,0-76.913c82.776,0,165.552,0,248.328,0c0.623,17.065,1.235,34.233,1.836,51.505c0,0.041,0,0.082,0,0.123
			c0,3.712-0.432,6.757-1.318,9.274c-0.004,0.01-0.007,0.02-0.011,0.03c-1.353,3.83-5.846,11.819-19.809,10.621
			c0.385,8.105,0.769,16.235,1.151,24.389c0,0.043,0,0.086,0.001,0.129c0.018,3.121-0.362,5.655-1.162,7.724
			c-0.006,0.015-0.012,0.029-0.017,0.044c-0.79,2.021-2.478,4.787-6.034,6.469c-4.374,2.08-10.278,1.924-17.61-0.013
			C143.903,89.704,87.725,89.908,34.438,104.384z"/>
	</g>
	<g>
		<g>
			<path fill="#111820" d="M64.287,59.235c-0.032,3.268-0.064,6.536-0.096,9.804c-0.032,3.304-0.065,6.608-0.097,9.911
				c1.154-0.183,2.309-0.359,3.464-0.53c0.031-3.282,0.062-6.563,0.094-9.845c0.031-3.246,0.062-6.492,0.093-9.738
				C66.592,58.965,65.439,59.098,64.287,59.235z"/>
			<path fill="#111820" d="M99.763,68.437c-1.312,0.061-2.623,0.129-3.934,0.204c-0.011,2.272-0.022,4.544-0.034,6.815
				c1.313-0.082,2.626-0.157,3.94-0.224C99.744,72.967,99.754,70.702,99.763,68.437z"/>
			<path fill="#111820" d="M25.434,41.275c0.024-3.164,0.048-6.329,0.072-9.493c-1.542,0.158-3.084,0.32-4.624,0.486
				c-0.021,3.212-0.042,6.425-0.063,9.637C22.356,41.689,23.894,41.479,25.434,41.275z"/>
			<path fill="#111820" d="M136.196,12.909c0.034,7.535,0.069,15.07,0.103,22.605c1.387,0.038,2.774,0.08,4.16,0.127
				c-0.041-7.562-0.083-15.124-0.124-22.685C138.955,12.939,137.576,12.923,136.196,12.909z"/>
			<path fill="#111820" d="M131.919,56.361c-1.224-0.041-2.448-0.077-3.672-0.107c0.006,2.121,0.012,4.242,0.017,6.363
				c1.226,0.034,2.452,0.074,3.678,0.12C131.935,60.611,131.927,58.486,131.919,56.361z"/>
			<path fill="#111820" d="M20.994,15.257c-0.019,2.867-0.038,5.735-0.057,8.602c1.543-0.123,3.087-0.243,4.631-0.36
				c0.021-2.825,0.043-5.649,0.064-8.474C24.086,15.1,22.54,15.178,20.994,15.257z"/>
			<path fill="#111820" d="M99.812,56.442c-1.308,0.05-2.616,0.106-3.923,0.168c-0.01,2.028-0.02,4.056-0.03,6.083
				c1.309-0.068,2.619-0.131,3.928-0.186C99.795,60.486,99.804,58.464,99.812,56.442z"/>
			<path fill="#111820" d="M159.971,58.184c0.028,3.21,0.056,6.42,0.085,9.631c0.009,1.02,0.018,2.041,0.027,3.061
				c1.178,0.139,2.356,0.283,3.533,0.433c-0.009-1.027-0.019-2.053-0.028-3.08c-0.03-3.23-0.06-6.46-0.089-9.689
				C162.322,58.416,161.147,58.297,159.971,58.184z"/>
			<path fill="#111820" d="M232.508-0.217c-77.531,0-155.062,0-232.593,0c0,20.686,0,41.372,0,62.058
				c6.922-1.643,13.89-3.137,20.896-4.481c-0.443,0.547-0.85,1.123-1.22,1.726c-1.695,2.763-2.56,6.063-2.581,9.734
				c-0.038,6.796-0.077,13.592-0.115,20.389c-0.016,2.837,0.369,4.979,1.177,6.529c0.003,0.005,0.005,0.01,0.008,0.015
				c1.622,3.083,4.968,4.468,9.458,4.063c1.68-0.145,3.902-0.666,7.005-1.571c53.08-15.465,109.459-15.683,162.632-0.655
				c11.381,3.335,14.951-0.736,16.115-3.725c0.002-0.005,0.004-0.01,0.006-0.015c0.566-1.449,0.833-3.32,0.818-5.71
				c-0.495-10.341-0.992-20.636-1.493-30.887c0.814,0.155,1.627,0.312,2.44,0.472c12.724,2.617,16.739-2.845,18.049-6.568
				c0.002-0.006,0.004-0.012,0.007-0.018c0.65-1.851,0.967-4.198,0.967-7.153C233.568,29.164,233.042,14.431,232.508-0.217z
				 M159.604,14.59c-0.02-2.295,0.19-4.022,0.631-5.184c1.126-2.917,4.116-4.369,8.972-4.321c6.907,0.074,13.813,0.162,20.716,0.265
				c0.029,2.958,0.059,5.915,0.088,8.873c-5.325-0.206-10.655-0.39-15.988-0.551c0.026,2.593,0.052,5.186,0.078,7.779
				c4.234,0.199,8.464,0.421,12.69,0.665c0.026,2.593,0.053,5.186,0.079,7.779c-4.226-0.329-8.457-0.628-12.693-0.897
				c0.029,2.864,0.058,5.728,0.087,8.592c5.618,0.461,11.225,0.991,16.819,1.588c0.029,2.964,0.059,5.928,0.088,8.893
				c-6.116-0.801-12.252-1.502-18.402-2.103c-1.356-0.132-3.542-0.517-6.562-1.117c-2.673-0.913-4.498-2.464-5.472-4.678
				c-0.616-1.399-0.936-3.449-0.959-6.16C159.718,27.539,159.661,21.065,159.604,14.59z M121.733,4.809
				c6.587,0.006,13.174,0.026,19.76,0.059c3.956,0.02,6.712,0.351,8.27,0.994c2.11,0.87,3.548,2.283,4.316,4.235
				c0.46,1.202,0.7,2.924,0.718,5.166c0.05,6.164,0.1,12.328,0.15,18.492c0.022,2.69-0.264,4.691-0.857,5.999
				c-0.94,2.072-2.744,3.355-5.413,3.874c-1.36,0.26-3.553,0.307-6.583,0.174c-6.766-0.295-13.54-0.471-20.316-0.527
				C121.763,30.453,121.748,17.631,121.733,4.809z M44.828,5.339c4.827-0.071,9.655-0.136,14.485-0.193
				c-0.11,10.835-0.219,21.671-0.329,32.506c1.73-0.144,3.461-0.281,5.193-0.412c0.105-10.717,0.21-21.435,0.316-32.152
				c4.805-0.052,9.611-0.096,14.418-0.134c-0.079,9.625-0.157,19.25-0.236,28.875c-0.03,3.738-0.706,6.352-2.027,7.863
				c-1.829,2.107-5.315,3.354-10.443,3.81c-3.393,0.302-6.782,0.634-10.166,0.996c-6.418,0.699-10.118-0.6-11.132-4.104
				c-0.289-1.008-0.423-2.599-0.401-4.768C44.613,26.865,44.72,16.102,44.828,5.339z M6.701,54.018
				c0.04-15.989,0.08-31.979,0.12-47.968c6.316-0.143,12.635-0.273,18.957-0.392c2.948-0.055,5.197,0.032,6.745,0.253
				c3.044,0.444,5.133,1.595,6.266,3.44c0.836,1.407,1.241,3.505,1.214,6.312c-0.031,3.255-0.454,5.573-1.265,6.973
				c-1.168,2.033-3.476,3.432-6.921,4.215c3.234,0.527,5.42,1.439,6.555,2.729c0.986,1.183,1.466,3.191,1.438,6.037
				c-0.053,5.489-0.936,9.106-2.645,10.893c-1.156,1.179-2.831,2.094-5.022,2.754c-1.395,0.417-3.582,0.855-6.558,1.34
				C19.263,51.634,12.967,52.772,6.701,54.018z M49.528,88.839c-5.001,1.109-9.98,2.342-14.932,3.701
				c-2.435,0.669-4.182,1.057-5.248,1.124c-2.461,0.165-4.111-0.525-4.957-2.113c-0.484-0.916-0.718-2.371-0.704-4.361
				c0.025-3.43,0.05-6.86,0.075-10.29c0.023-3.213,0.047-6.425,0.07-9.638c0.037-5.015,2.114-8.369,6.253-9.932
				c1.034-0.392,2.751-0.797,5.154-1.195c4.702-0.778,9.418-1.489,14.146-2.131c-0.025,2.426-0.05,4.851-0.074,7.277
				c-4.541,0.7-9.069,1.471-13.582,2.312c-0.032,3.508-0.065,7.015-0.097,10.523c-0.033,3.546-0.066,7.092-0.098,10.638
				c4.669-1.162,9.361-2.223,14.07-3.181C49.578,83.994,49.553,86.417,49.528,88.839z M79.764,67.204
				c-0.018,2.222-0.035,4.445-0.053,6.667c-0.021,2.578-0.225,4.415-0.613,5.516c-0.691,1.975-2.179,3.427-4.462,4.394
				c-1.311,0.554-3.379,1.032-6.197,1.475c-1.641,0.259-3.28,0.53-4.917,0.815c-3.023,0.527-5.344,0.719-6.97,0.518
				c-2.294-0.293-3.72-1.332-4.284-3.148c-0.202-0.646-0.294-1.805-0.277-3.476c0.031-3.016,0.062-6.033,0.093-9.049
				c0.027-2.636,0.054-5.272,0.081-7.907c0.027-2.654,0.36-4.618,0.997-5.88c0.851-1.716,2.28-2.959,4.291-3.718
				c1.131-0.427,2.908-0.78,5.335-1.044c1.841-0.199,3.683-0.389,5.527-0.568c2.598-0.252,4.568-0.282,5.909-0.116
				c2.513,0.318,4.163,1.389,4.947,3.189c0.453,1.051,0.67,2.849,0.65,5.395C79.801,62.58,79.782,64.892,79.764,67.204z
				 M83.718,4.864c7.236-0.049,14.473-0.082,21.711-0.098c3.055-0.007,5.284,0.173,6.686,0.534c2.253,0.579,3.681,1.722,4.283,3.428
				c0.301,0.836,0.451,2.197,0.451,4.084c0,10.148-0.001,20.296-0.001,30.443c-4.88,0.001-9.76,0.065-14.637,0.19
				c0.036-10.192,0.072-20.384,0.108-30.576c-1.38,0.011-2.76,0.023-4.14,0.037c-0.046,10.221-0.092,20.441-0.138,30.662
				c-4.876,0.161-9.748,0.383-14.615,0.668C83.524,31.112,83.621,17.988,83.718,4.864z M107.063,65.529
				c1.694,0.47,2.902,1.086,3.623,1.835c0.845,0.924,1.267,2.446,1.265,4.562c-0.005,4.083-0.73,6.708-2.175,7.889
				c-0.979,0.779-2.402,1.315-4.271,1.625c-1.19,0.196-3.058,0.345-5.605,0.484c-5.411,0.297-10.816,0.734-16.209,1.313
				c0.04-5.469,0.08-10.937,0.12-16.406c0.04-5.434,0.079-10.868,0.119-16.302c5.318-0.349,10.644-0.614,15.974-0.794
				c2.485-0.084,4.382-0.04,5.688,0.112c2.569,0.306,4.339,1.161,5.308,2.539c0.715,1.05,1.073,2.619,1.07,4.705
				c-0.003,2.42-0.344,4.132-1.021,5.14c-0.975,1.467-2.923,2.405-5.843,2.857C105.818,65.218,106.469,65.364,107.063,65.529z
				 M137.897,65.968c0.974,0.22,1.68,0.417,2.112,0.584c2.581,1.011,3.881,2.966,3.899,5.817c0.021,3.418,0.042,6.837,0.063,10.255
				c-3.982-0.345-7.97-0.614-11.96-0.806c-0.016-4.357-0.031-8.713-0.047-13.07c-1.227-0.05-2.455-0.093-3.683-0.131
				c0.012,4.348,0.024,8.697,0.035,13.045c-4.119-0.149-8.241-0.217-12.363-0.203c0.001-5.352,0.003-10.704,0.004-16.056
				c0.001-5.318,0.003-10.636,0.004-15.954c5.755-0.012,11.51,0.075,17.262,0.259c6.067,0.197,9.546,1.85,10.449,4.811
				c0.215,0.718,0.327,1.766,0.335,3.146c0.016,2.576-0.248,4.337-0.79,5.281c-0.836,1.479-2.686,2.454-5.557,2.969
				C137.742,65.933,137.818,65.95,137.897,65.968z M175.724,69.907c0.058,5.719,0.116,11.439,0.174,17.158
				c-4.041-0.777-8.094-1.473-12.157-2.089c-0.02-2.223-0.041-4.446-0.061-6.668c-1.199-0.168-2.399-0.329-3.599-0.483
				c0.019,2.209,0.039,4.418,0.058,6.627c-4.026-0.562-8.062-1.045-12.103-1.449c-0.038-5.453-0.075-10.906-0.113-16.359
				c-0.017-2.477-0.034-4.955-0.051-7.432c-0.017-2.494,0.286-4.275,0.91-5.342c0.831-1.453,2.254-2.364,4.267-2.715
				c1.132-0.197,2.917-0.207,5.352-0.007c1.847,0.152,3.693,0.314,5.537,0.487c2.641,0.247,4.61,0.594,5.911,1.019
				c2.432,0.801,4.075,2.214,4.931,4.221c0.513,1.223,0.783,3.114,0.809,5.665c0.021,0.003,0.042,0.006,0.063,0.009
				C175.674,65,175.699,67.454,175.724,69.907z M207.307,86.187c0.014,1.724-0.16,3.045-0.522,3.957
				c-1.086,2.715-4.291,3.221-9.663,1.779c-5.498-1.463-11.027-2.773-16.583-3.929c-0.025-2.399-0.049-4.799-0.074-7.198
				c5.011,0.958,10.003,2.031,14.972,3.218c-0.023-2.41-0.046-4.82-0.069-7.23c-1.885-0.412-3.773-0.808-5.664-1.19
				c-4.311-0.87-7.238-2.462-8.764-4.844c-0.814-1.27-1.231-2.764-1.249-4.498c-0.02-1.907-0.039-3.814-0.059-5.721
				c-0.05-4.772,3.27-6.782,9.924-5.831c5.426,0.793,10.836,1.676,16.224,2.649c0.021,2.575,0.042,5.15,0.063,7.726
				c-4.722-0.968-9.462-1.858-14.218-2.669c0.021,2.167,0.043,4.335,0.064,6.502c1.64,0.309,3.278,0.628,4.914,0.958
				c3.603,0.726,6.228,1.851,7.887,3.343c0.844,0.773,1.493,1.693,1.951,2.755c0.531,1.232,0.806,2.654,0.818,4.26
				C207.276,82.212,207.291,84.199,207.307,86.187z M227.271,42.875c0.006,2.22-0.212,3.951-0.651,5.182
				c-1.321,3.669-5.17,4.806-11.595,3.664c-6.576-1.153-13.182-2.189-19.813-3.106c-0.029-2.998-0.057-5.995-0.086-8.993
				c5.986,0.675,11.957,1.429,17.907,2.261c-0.02-3.06-0.04-6.12-0.061-9.18c-2.261-0.247-4.523-0.485-6.788-0.714
				c-7.916-0.819-11.921-4.251-11.98-10.46c-0.023-2.381-0.046-4.762-0.069-7.143c-0.058-5.959,3.914-8.89,11.913-8.77
				c6.523,0.119,13.043,0.251,19.559,0.397c0.01,3.31,0.02,6.621,0.03,9.931c-5.699-0.331-11.406-0.635-17.119-0.914
				c0.021,2.741,0.041,5.482,0.062,8.223c1.968,0.148,3.935,0.3,5.901,0.458c4.329,0.345,7.487,1.321,9.477,2.945
				c2.189,1.818,3.285,4.688,3.294,8.54C227.258,37.757,227.264,40.316,227.271,42.875z"/>
			<path fill="#FFFFFF" d="M32.144,49.264c2.191-0.66,3.865-1.575,5.022-2.754c1.708-1.788,2.592-5.404,2.645-10.893
				c0.028-2.846-0.452-4.854-1.438-6.037c-1.136-1.29-3.322-2.202-6.555-2.729c3.445-0.783,5.753-2.183,6.921-4.215
				c0.811-1.399,1.234-3.718,1.265-6.973c0.027-2.806-0.378-4.905-1.214-6.312c-1.133-1.845-3.222-2.996-6.266-3.44
				c-1.548-0.221-3.797-0.308-6.745-0.253C19.457,5.776,13.137,5.907,6.822,6.05c-0.04,15.989-0.08,31.979-0.12,47.968
				c6.265-1.246,12.562-2.385,18.885-3.414C28.562,50.119,30.75,49.682,32.144,49.264z M20.937,23.859
				c0.019-2.867,0.038-5.735,0.057-8.602c1.546-0.079,3.092-0.156,4.639-0.231c-0.021,2.825-0.043,5.649-0.064,8.474
				C24.024,23.616,22.48,23.736,20.937,23.859z M25.506,31.781c-0.024,3.164-0.048,6.329-0.072,9.493
				c-1.54,0.205-3.078,0.415-4.615,0.63c0.021-3.212,0.042-6.425,0.063-9.637C22.422,32.101,23.964,31.939,25.506,31.781z"/>
			<path fill="#FFFFFF" d="M56.039,46.5c3.384-0.362,6.773-0.694,10.166-0.996c5.128-0.456,8.613-1.704,10.443-3.81
				c1.321-1.511,1.997-4.126,2.027-7.863c0.079-9.625,0.157-19.25,0.236-28.875c-4.807,0.037-9.613,0.082-14.418,0.134
				c-0.105,10.717-0.21,21.435-0.316,32.152c-1.732,0.131-3.463,0.269-5.193,0.412c0.11-10.835,0.219-21.671,0.329-32.506
				c-4.829,0.057-9.658,0.121-14.485,0.193c-0.108,10.763-0.215,21.525-0.323,32.288c-0.022,2.169,0.112,3.76,0.401,4.768
				C45.92,45.9,49.621,47.199,56.039,46.5z"/>
			<path fill="#FFFFFF" d="M98.18,12.905c1.38-0.014,2.76-0.026,4.14-0.037c-0.036,10.192-0.072,20.384-0.108,30.576
				c4.877-0.125,9.757-0.189,14.637-0.19c0-10.148,0.001-20.296,0.001-30.443c0-1.887-0.15-3.249-0.451-4.084
				c-0.601-1.706-2.029-2.849-4.283-3.428c-1.403-0.361-3.632-0.541-6.686-0.534c-7.238,0.017-14.475,0.05-21.711,0.098
				c-0.097,13.124-0.194,26.248-0.291,39.372c4.867-0.285,9.74-0.507,14.615-0.668C98.088,33.347,98.134,23.126,98.18,12.905z"/>
			<path fill="#FFFFFF" d="M148.677,43.628c2.669-0.52,4.472-1.802,5.413-3.874c0.594-1.308,0.879-3.309,0.857-5.999
				c-0.05-6.164-0.1-12.328-0.15-18.492c-0.018-2.242-0.258-3.964-0.718-5.166c-0.767-1.952-2.206-3.365-4.316-4.235
				c-1.558-0.643-4.314-0.975-8.27-0.994c-6.586-0.033-13.173-0.053-19.76-0.059c0.015,12.822,0.03,25.644,0.045,38.466
				c6.776,0.056,13.55,0.232,20.316,0.527C145.124,43.935,147.318,43.887,148.677,43.628z M136.299,35.514
				c-0.034-7.535-0.069-15.07-0.103-22.605c1.38,0.014,2.76,0.03,4.139,0.047c0.041,7.562,0.083,15.124,0.124,22.685
				C139.073,35.595,137.686,35.553,136.299,35.514z"/>
			<path fill="#FFFFFF" d="M166.206,44.851c3.02,0.6,5.207,0.985,6.562,1.117c6.15,0.601,12.286,1.302,18.402,2.103
				c-0.029-2.964-0.059-5.928-0.088-8.893c-5.594-0.598-11.201-1.127-16.819-1.588c-0.029-2.864-0.058-5.728-0.087-8.592
				c4.236,0.269,8.467,0.568,12.693,0.897c-0.026-2.593-0.053-5.186-0.079-7.779c-4.226-0.244-8.457-0.466-12.69-0.665
				c-0.026-2.593-0.052-5.186-0.078-7.779c5.333,0.161,10.663,0.345,15.988,0.551c-0.029-2.958-0.059-5.915-0.088-8.873
				c-6.903-0.103-13.808-0.192-20.716-0.265c-4.856-0.048-7.846,1.404-8.972,4.321c-0.44,1.161-0.651,2.888-0.631,5.184
				c0.057,6.475,0.114,12.949,0.171,19.424c0.024,2.71,0.344,4.761,0.959,6.16C161.708,42.387,163.534,43.939,166.206,44.851z"/>
			<path fill="#FFFFFF" d="M223.957,26.658c-1.99-1.624-5.148-2.6-9.477-2.945c-1.966-0.157-3.933-0.31-5.901-0.458
				c-0.021-2.741-0.041-5.482-0.062-8.223c5.713,0.278,11.42,0.583,17.119,0.914c-0.01-3.31-0.02-6.621-0.03-9.931
				c-6.516-0.145-13.036-0.278-19.559-0.397c-7.999-0.121-11.971,2.811-11.913,8.77c0.023,2.381,0.046,4.762,0.069,7.143
				c0.059,6.209,4.065,9.641,11.98,10.46c2.265,0.229,4.528,0.467,6.788,0.714c0.02,3.06,0.04,6.12,0.061,9.18
				c-5.95-0.832-11.921-1.586-17.907-2.261c0.029,2.998,0.057,5.995,0.086,8.993c6.631,0.918,13.237,1.953,19.813,3.106
				c6.425,1.142,10.274,0.005,11.595-3.664c0.44-1.232,0.657-2.962,0.651-5.182c-0.006-2.559-0.013-5.118-0.019-7.678
				C227.242,31.346,226.146,28.476,223.957,26.658z"/>
			<path fill="#FFFFFF" d="M35.631,74.115c0.032-3.508,0.065-7.015,0.097-10.523c4.513-0.842,9.041-1.613,13.582-2.312
				c0.025-2.426,0.05-4.851,0.074-7.277c-4.728,0.642-9.444,1.353-14.146,2.131c-2.403,0.398-4.12,0.802-5.154,1.195
				c-4.14,1.563-6.217,4.916-6.253,9.932c-0.023,3.213-0.047,6.425-0.07,9.638c-0.025,3.43-0.05,6.86-0.075,10.29
				c-0.014,1.99,0.22,3.445,0.704,4.361c0.847,1.588,2.496,2.278,4.957,2.113c1.066-0.067,2.813-0.455,5.248-1.124
				c4.952-1.358,9.931-2.592,14.932-3.701c0.025-2.422,0.05-4.845,0.074-7.267c-4.709,0.959-9.4,2.019-14.07,3.181
				C35.565,81.207,35.598,77.661,35.631,74.115z M48.133,83.029c-0.017,1.66-0.034,3.32-0.051,4.979
				c-4.511,1.01-9.004,2.12-13.476,3.33c-2.862,0.778-4.229,1.003-4.875,1.039c-2.023,0.126-3.331-0.415-4.008-1.683
				c-0.413-0.781-0.616-2.099-0.603-3.912c0.023-3.002,0.046-6.004,0.068-9.005c2.986-0.751,5.981-1.465,8.984-2.141
				c-0.032,3.561-0.065,7.122-0.097,10.683C38.741,85.119,43.428,84.023,48.133,83.029z"/>
			<path fill="#DCDCDC" d="M34.174,75.636c-3.003,0.676-5.998,1.39-8.984,2.141c-0.023,3.002-0.046,6.004-0.068,9.005
				c-0.014,1.813,0.19,3.132,0.603,3.912c0.678,1.267,1.985,1.809,4.008,1.683c0.646-0.036,2.013-0.261,4.875-1.039
				c4.471-1.211,8.964-2.321,13.476-3.33c0.017-1.66,0.034-3.32,0.051-4.979c-4.705,0.994-9.392,2.09-14.056,3.29
				C34.109,82.758,34.141,79.197,34.174,75.636z"/>
			<path fill="#FFFFFF" d="M74.223,51.685c-1.341-0.166-3.311-0.136-5.909,0.116c-1.844,0.179-3.686,0.368-5.527,0.568
				c-2.427,0.263-4.204,0.617-5.335,1.044c-2.01,0.759-3.44,2.002-4.291,3.718c-0.638,1.262-0.97,3.225-0.997,5.88
				c-0.027,2.636-0.054,5.272-0.081,7.907c-0.031,3.016-0.062,6.033-0.093,9.049c-0.017,1.671,0.074,2.83,0.277,3.476
				c0.564,1.817,1.99,2.855,4.284,3.148c1.626,0.2,3.948,0.008,6.97-0.518c1.637-0.285,3.276-0.557,4.917-0.815
				c2.818-0.444,4.886-0.921,6.197-1.475c2.283-0.967,3.771-2.419,4.462-4.394c0.388-1.101,0.593-2.938,0.613-5.516
				c0.018-2.222,0.035-4.445,0.053-6.667c0.018-2.312,0.037-4.624,0.055-6.936c0.02-2.546-0.197-4.344-0.65-5.395
				C78.385,53.074,76.736,52.003,74.223,51.685z M78.236,74.032c-0.02,2.477-0.21,4.241-0.563,5.246
				c-0.567,1.625-1.732,2.78-3.563,3.556c-0.777,0.331-2.394,0.811-5.661,1.317c-1.641,0.255-3.28,0.523-4.917,0.805
				c-2.817,0.484-4.973,0.662-6.415,0.48c-1.846-0.243-2.968-1.067-3.426-2.538c-0.121-0.385-0.26-1.253-0.24-3.209
				c0.027-2.625,0.054-5.25,0.081-7.876c3.055-0.52,6.116-1.002,9.182-1.447c-0.033,3.314-0.066,6.627-0.098,9.941
				c2.132-0.352,4.266-0.683,6.404-0.994c0.031-3.273,0.061-6.545,0.092-9.818c3.053-0.389,6.11-0.741,9.171-1.055
				C78.266,70.303,78.251,72.167,78.236,74.032z M67.559,78.42c-1.156,0.171-2.31,0.347-3.464,0.53
				c0.032-3.304,0.065-6.608,0.097-9.911c0.032-3.268,0.064-6.536,0.096-9.804c1.152-0.137,2.304-0.27,3.457-0.398
				c-0.031,3.246-0.062,6.492-0.093,9.738C67.621,71.857,67.59,75.139,67.559,78.42z"/>
			<path fill="#DCDCDC" d="M69.019,79.312c-2.137,0.31-4.272,0.642-6.404,0.994c0.033-3.314,0.066-6.627,0.098-9.941
				c-3.067,0.444-6.128,0.927-9.182,1.447c-0.027,2.625-0.054,5.25-0.081,7.876c-0.02,1.956,0.119,2.824,0.24,3.209
				c0.458,1.471,1.581,2.295,3.426,2.538c1.442,0.183,3.598,0.005,6.415-0.48c1.637-0.281,3.276-0.549,4.917-0.805
				c3.267-0.505,4.884-0.986,5.661-1.317c1.83-0.776,2.996-1.931,3.563-3.556c0.353-1.004,0.543-2.768,0.563-5.246
				c0.015-1.864,0.031-3.729,0.046-5.593c-3.061,0.314-6.118,0.666-9.171,1.055C69.08,72.766,69.05,76.039,69.019,79.312z"/>
			<path fill="#FFFFFF" d="M94.309,76.62c2.301-0.157,4.602-0.289,6.905-0.398c0.011-2.971,0.022-5.943,0.033-8.914
				c-2.298,0.096-4.596,0.213-6.892,0.352C94.34,70.647,94.324,73.633,94.309,76.62z M95.829,68.64
				c1.311-0.075,2.622-0.143,3.934-0.204c-0.009,2.265-0.018,4.53-0.028,6.795c-1.314,0.067-2.627,0.142-3.94,0.224
				C95.807,73.184,95.818,70.912,95.829,68.64z"/>
			<path fill="#DCDCDC" d="M85.278,67.786c-0.033,4.739-0.067,9.479-0.1,14.218c4.9-0.496,9.81-0.877,14.725-1.143
				c2.449-0.132,4.247-0.274,5.338-0.454c1.529-0.255,2.685-0.68,3.435-1.276c0.669-0.556,1.784-2.219,1.792-7.181
				c0.004-2.352-0.55-3.463-1.019-3.98c-0.52-0.533-1.427-0.997-2.698-1.374C99.584,66.79,92.423,67.187,85.278,67.786z
				 M101.214,76.222c-2.303,0.109-4.605,0.242-6.905,0.398c0.016-2.987,0.031-5.974,0.047-8.96c2.296-0.138,4.593-0.255,6.892-0.352
				C101.236,70.279,101.225,73.251,101.214,76.222z"/>
			<path fill="#FFFFFF" d="M110.947,62.233c0.677-1.008,1.018-2.72,1.021-5.14c0.002-2.087-0.355-3.655-1.07-4.705
				c-0.969-1.378-2.738-2.233-5.308-2.539c-1.307-0.152-3.203-0.196-5.688-0.112c-5.329,0.18-10.655,0.445-15.974,0.794
				c-0.04,5.434-0.079,10.868-0.119,16.302c-0.04,5.469-0.08,10.937-0.12,16.406c5.393-0.579,10.797-1.016,16.209-1.313
				c2.546-0.139,4.415-0.288,5.605-0.484c1.869-0.311,3.292-0.846,4.271-1.625c1.445-1.182,2.171-3.806,2.175-7.889
				c0.003-2.116-0.42-3.638-1.265-4.562c-0.72-0.749-1.929-1.365-3.623-1.835c-0.593-0.165-1.245-0.312-1.958-0.439
				C108.025,64.637,109.972,63.7,110.947,62.233z M109.449,67.971c0.469,0.517,1.022,1.628,1.019,3.98
				c-0.007,4.961-1.122,6.625-1.792,7.181c-0.75,0.596-1.906,1.022-3.435,1.276c-1.091,0.18-2.888,0.322-5.338,0.454
				c-4.915,0.266-9.825,0.647-14.725,1.143c0.033-4.739,0.067-9.479,0.1-14.218c7.145-0.6,14.306-0.996,21.473-1.189
				C108.022,66.973,108.929,67.437,109.449,67.971z M95.889,56.611c1.307-0.062,2.615-0.118,3.923-0.168
				c-0.008,2.022-0.017,4.044-0.025,6.065c-1.31,0.056-2.619,0.118-3.928,0.186C95.869,60.666,95.879,58.638,95.889,56.611z"/>
			<path fill="#DCDCDC" d="M117.438,66.459c0.001,4.647,0.001,9.294,0.001,13.941c3.13,0.004,6.26,0.055,9.388,0.152
				c-0.01-4.346-0.021-8.691-0.031-13.037c2.215,0.058,4.429,0.135,6.643,0.233c0.017,4.361,0.034,8.721,0.051,13.082
				c2.999,0.157,5.996,0.356,8.991,0.598c-0.018-3.056-0.036-6.112-0.053-9.169c-0.014-2.411-1.006-3.982-3.025-4.771
				c-0.183-0.071-0.641-0.224-1.678-0.464C130.97,66.655,124.204,66.467,117.438,66.459z"/>
			<path fill="#FFFFFF" d="M143.217,62.945c0.542-0.944,0.806-2.705,0.79-5.281c-0.008-1.38-0.121-2.428-0.335-3.146
				c-0.903-2.961-4.383-4.614-10.449-4.811c-5.751-0.185-11.507-0.271-17.262-0.259c-0.001,5.318-0.003,10.636-0.004,15.954
				c-0.001,5.352-0.003,10.704-0.004,16.056c4.122-0.014,8.244,0.054,12.363,0.203c-0.012-4.348-0.024-8.697-0.035-13.045
				c1.228,0.038,2.455,0.081,3.683,0.131c0.016,4.357,0.031,8.713,0.047,13.07c3.99,0.192,7.978,0.461,11.96,0.806
				c-0.021-3.418-0.042-6.837-0.063-10.255c-0.018-2.851-1.318-4.806-3.899-5.817c-0.432-0.167-1.138-0.364-2.112-0.584
				c-0.078-0.018-0.154-0.035-0.236-0.053C140.531,65.4,142.382,64.424,143.217,62.945z M139.403,67.488
				c2.019,0.789,3.011,2.36,3.025,4.771c0.018,3.056,0.036,6.112,0.053,9.169c-2.994-0.242-5.992-0.442-8.991-0.598
				c-0.017-4.361-0.034-8.721-0.051-13.082c-2.214-0.097-4.428-0.175-6.643-0.233c0.01,4.346,0.021,8.691,0.031,13.037
				c-3.129-0.097-6.258-0.148-9.388-0.152c0-4.647-0.001-9.294-0.001-13.941c6.766,0.008,13.532,0.196,20.288,0.566
				C138.763,67.264,139.22,67.418,139.403,67.488z M128.247,56.253c1.224,0.031,2.448,0.067,3.672,0.107
				c0.008,2.125,0.015,4.25,0.023,6.375c-1.226-0.045-2.452-0.085-3.678-0.12C128.259,60.496,128.253,58.375,128.247,56.253z"/>
			<path fill="#DCDCDC" d="M165.096,72.604c-2.156-0.288-4.315-0.556-6.476-0.805c-0.009-1.018-0.018-2.036-0.026-3.054
				c-3.059-0.338-6.121-0.638-9.187-0.901c0.034,4.743,0.068,9.487,0.102,14.23c3.053,0.316,6.102,0.676,9.146,1.081
				c-0.019-2.204-0.038-4.408-0.057-6.611c2.184,0.268,4.365,0.556,6.544,0.866c0.021,2.229,0.042,4.457,0.063,6.686
				c3.079,0.475,6.152,0.996,9.218,1.563c-0.05-4.95-0.1-9.9-0.149-14.85c-3.063-0.469-6.131-0.9-9.205-1.293
				C165.076,70.546,165.086,71.575,165.096,72.604z"/>
			<path fill="#FFFFFF" d="M174.778,56.873c-0.856-2.007-2.498-3.42-4.931-4.221c-1.301-0.425-3.27-0.772-5.911-1.019
				c-1.844-0.173-3.69-0.335-5.537-0.487c-2.435-0.2-4.219-0.19-5.352,0.007c-2.013,0.351-3.436,1.262-4.267,2.715
				c-0.623,1.068-0.927,2.848-0.91,5.342c0.017,2.477,0.034,4.955,0.051,7.432c0.038,5.453,0.075,10.906,0.113,16.359
				c4.042,0.404,8.077,0.887,12.103,1.449c-0.019-2.209-0.039-4.418-0.058-6.627c1.2,0.155,2.4,0.316,3.599,0.483
				c0.021,2.223,0.041,4.446,0.061,6.668c4.063,0.616,8.116,1.312,12.157,2.089c-0.058-5.719-0.116-11.439-0.174-17.158
				c-0.025-2.453-0.05-4.906-0.075-7.359c-0.021-0.003-0.042-0.006-0.063-0.009C175.561,59.988,175.291,58.096,174.778,56.873z
				 M174.421,85.66c-3.066-0.567-6.139-1.088-9.218-1.563c-0.021-2.229-0.042-4.457-0.063-6.686c-2.179-0.31-4.36-0.599-6.544-0.866
				c0.019,2.204,0.038,4.408,0.057,6.611c-3.044-0.405-6.093-0.765-9.146-1.081c-0.034-4.743-0.068-9.487-0.102-14.23
				c3.066,0.263,6.128,0.563,9.187,0.901c0.009,1.018,0.018,2.036,0.026,3.054c2.161,0.249,4.32,0.517,6.476,0.805
				c-0.01-1.029-0.019-2.059-0.029-3.088c3.073,0.393,6.142,0.824,9.205,1.293C174.321,75.76,174.371,80.71,174.421,85.66z
				 M163.615,71.308c-1.177-0.15-2.354-0.294-3.533-0.433c-0.009-1.02-0.018-2.041-0.027-3.061c-0.028-3.21-0.056-6.42-0.085-9.631
				c1.176,0.114,2.352,0.232,3.527,0.355c0.03,3.23,0.06,6.46,0.089,9.689C163.596,69.255,163.606,70.281,163.615,71.308z"/>
			<path fill="#DCDCDC" d="M184.354,72.494c1.334,0.853,3.105,1.488,5.339,1.931c2.376,0.472,4.747,0.967,7.113,1.486
				c0.03,3.215,0.061,6.43,0.091,9.645c-4.963-1.227-9.951-2.337-14.959-3.332c0.017,1.644,0.034,3.288,0.051,4.931
				c5.064,1.065,10.107,2.257,15.123,3.574c4.709,1.246,7.412,0.87,8.299-1.339c0.318-0.8,0.473-2.011,0.46-3.596
				c-0.016-1.979-0.032-3.957-0.048-5.936c-0.009-1.07-0.145-2.049-0.407-2.919C198.438,75.255,191.414,73.773,184.354,72.494z"/>
			<path fill="#FFFFFF" d="M204.491,73.209c-1.659-1.492-4.284-2.618-7.887-3.343c-1.636-0.329-3.274-0.649-4.914-0.958
				c-0.021-2.167-0.043-4.335-0.064-6.502c4.756,0.811,9.496,1.701,14.218,2.669c-0.021-2.575-0.042-5.15-0.063-7.726
				c-5.388-0.973-10.797-1.856-16.224-2.649c-6.655-0.951-9.975,1.059-9.924,5.831c0.02,1.907,0.039,3.814,0.059,5.721
				c0.018,1.734,0.435,3.229,1.249,4.498c1.526,2.382,4.454,3.974,8.764,4.844c1.891,0.381,3.779,0.778,5.664,1.19
				c0.023,2.41,0.046,4.82,0.069,7.23c-4.969-1.188-9.961-2.26-14.972-3.218c0.025,2.399,0.049,4.799,0.074,7.198
				c5.555,1.156,11.085,2.466,16.583,3.929c5.372,1.442,8.577,0.936,9.663-1.779c0.361-0.912,0.536-2.232,0.522-3.957
				c-0.016-1.988-0.031-3.975-0.047-5.963c-0.013-1.606-0.287-3.028-0.818-4.26C205.984,74.903,205.335,73.982,204.491,73.209z
				 M205.869,85.795c0.013,1.585-0.142,2.796-0.46,3.596c-0.887,2.21-3.59,2.585-8.299,1.339
				c-5.016-1.318-10.059-2.509-15.123-3.574c-0.017-1.644-0.034-3.287-0.051-4.931c5.008,0.994,9.995,2.105,14.959,3.332
				c-0.03-3.215-0.061-6.43-0.091-9.645c-2.366-0.519-4.737-1.014-7.113-1.486c-2.234-0.444-4.005-1.079-5.339-1.931
				c7.06,1.279,14.084,2.761,21.061,4.446c0.261,0.87,0.398,1.849,0.407,2.919C205.837,81.837,205.853,83.816,205.869,85.795z"/>
		</g>
	</g>
</g>
</svg>
